<svg width="806" height="832" viewBox="0 0 806 832" fill="none" xmlns="http://www.w3.org/2000/svg">
<path d="M467.28 283.224C467.28 283.224 449.328 247.848 408.848 257.704C410.96 268.44 417.824 277.592 427.328 282.872C443.696 292.2 467.28 283.224 467.28 283.224Z" fill="#231F20"/>
<path d="M470.8 512.2C469.392 512.2 468.336 511.144 468.336 509.736V238.872C468.336 237.464 469.392 236.408 470.8 236.408C472.208 236.408 473.264 237.464 473.264 238.872V509.736C473.264 511.144 472.208 512.2 470.8 512.2Z" fill="#231F20"/>
<path d="M505.296 301.88C505.296 301.88 543.312 291.672 560.032 336.728C560.032 336.728 544.72 341.832 527.12 331.976C508.64 321.592 505.296 301.88 505.296 301.88Z" fill="#231F20"/>
<path d="M435.424 337.608C435.424 337.608 430.144 376.68 382.096 374.744C382.096 374.744 383.328 358.728 399.168 346.232C415.888 333.208 435.424 337.608 435.424 337.608Z" fill="#231F20"/>
<path d="M470.8 238.872C498.017 238.872 520.08 216.808 520.08 189.592C520.08 162.375 498.017 140.312 470.8 140.312C443.583 140.312 421.52 162.375 421.52 189.592C421.52 216.808 443.583 238.872 470.8 238.872Z" fill="white"/>
<path d="M470.8 240.104C442.992 240.104 420.288 217.576 420.288 189.592C420.288 161.784 442.816 139.08 470.8 139.08C498.784 139.08 521.312 161.608 521.312 189.592C521.312 217.576 498.784 240.104 470.8 240.104ZM470.8 141.72C444.224 141.72 422.752 163.192 422.752 189.768C422.752 216.344 444.224 237.816 470.8 237.816C497.376 237.816 518.848 216.344 518.848 189.768C518.848 163.192 497.376 141.72 470.8 141.72Z" fill="#231F20"/>
<path d="M470.8 230.248C448.448 230.248 430.32 212.12 430.496 189.768C430.496 167.416 448.624 149.288 470.976 149.464C493.328 149.464 511.28 167.592 511.456 189.944C511.28 212.12 493.152 230.248 470.8 230.248ZM470.8 151.576C449.68 151.576 432.608 168.648 432.608 189.768C432.608 210.888 449.68 227.96 470.8 227.96C491.92 227.96 508.816 210.888 508.816 189.768C508.992 168.648 491.92 151.576 470.8 151.576Z" fill="#D1D3D4"/>
<path d="M472.736 209.832V215.288H468.512V209.656C459.888 208.776 453.904 204.2 452.672 195.752L461.824 194.168C462.88 198.568 464.992 200.856 468.688 201.56V192.408C461.472 190.648 453.728 188.36 453.728 180.616C453.728 173.752 459.712 169.176 468.688 168.824V164.072H472.912V169C480.832 169.88 486.288 174.28 487.872 180.616L478.72 182.552C478.016 179.736 475.728 177.624 472.912 176.92V184.664C480.304 186.424 489.28 188.712 489.28 197.512C489.104 204.904 482.944 209.656 472.736 209.832ZM468.512 184.136V176.92C464.992 177.096 463.056 178.328 463.056 180.616C462.88 182.376 465.168 183.256 468.512 184.136ZM479.776 198.04C479.776 195.576 476.784 194.52 472.736 193.464V201.912C477.312 201.736 479.6 200.328 479.776 198.04Z" fill="#68E1FD"/>
<path d="M468.512 364.008C467.984 364.008 467.632 363.832 467.104 363.656L366.608 300.296C365.376 299.592 365.2 298.008 365.904 296.952C366.608 295.72 368.192 295.544 369.248 296.248L469.744 359.608C470.976 360.312 471.328 361.896 470.448 362.952C470.096 363.48 469.392 363.832 468.512 364.008Z" fill="#231F20"/>
<path d="M472.736 321.768C471.328 321.768 470.272 320.712 470.272 319.304C470.272 318.424 470.624 317.72 471.328 317.192L560.208 259.992C561.44 259.288 562.848 259.64 563.552 260.696C564.256 261.928 563.904 263.336 562.848 264.04L473.968 321.24C473.616 321.592 473.264 321.768 472.736 321.768Z" fill="#231F20"/>
<path d="M359.744 326.696C379.573 326.696 395.648 310.621 395.648 290.792C395.648 270.963 379.573 254.888 359.744 254.888C339.915 254.888 323.84 270.963 323.84 290.792C323.84 310.621 339.915 326.696 359.744 326.696Z" fill="white"/>
<path d="M359.744 327.928C339.328 327.928 322.608 311.384 322.608 290.792C322.608 270.376 339.152 253.656 359.744 253.656C380.16 253.656 396.88 270.2 396.88 290.792C396.88 311.208 380.336 327.928 359.744 327.928ZM359.744 256.12C340.56 256.12 325.072 271.608 325.072 290.792C325.072 309.976 340.56 325.464 359.744 325.464C378.928 325.464 394.416 309.976 394.416 290.792C394.416 271.608 378.928 256.12 359.744 256.12Z" fill="#231F20"/>
<path d="M359.744 320.712C343.2 320.712 329.824 307.336 329.824 290.792C329.824 274.248 343.2 260.872 359.744 260.872C376.288 260.872 389.664 274.248 389.664 290.792C389.664 307.336 376.288 320.712 359.744 320.712ZM359.744 263.336C344.608 263.336 332.288 275.656 332.288 290.792C332.288 305.928 344.608 318.248 359.744 318.248C374.88 318.248 387.2 305.928 387.2 290.792C387.2 275.656 375.056 263.336 359.744 263.336Z" fill="#D1D3D4"/>
<path d="M361.152 305.4V309.272H357.984V305.4C351.824 304.696 347.248 301.352 346.368 295.368L353.056 294.136C353.408 296.776 355.344 299.064 357.984 299.592V292.904C352.704 291.672 347.072 289.912 347.072 284.28C347.072 279.352 351.472 276.008 357.984 275.656V272.136H361.152V275.832C366.96 276.536 371.008 279.704 372.064 284.28L365.376 285.688C364.848 283.576 363.088 282.168 361.152 281.64V287.272C366.608 288.504 373.12 290.264 373.12 296.6C373.12 301.88 368.72 305.4 361.152 305.4ZM358.16 286.568V281.288C355.696 281.464 354.112 282.344 354.112 283.928C354.112 285.336 355.696 286.04 358.16 286.568ZM366.256 296.776C366.256 295.016 364.144 294.136 361.152 293.432V299.592C364.496 299.592 366.256 298.536 366.256 296.776Z" fill="#68E1FD"/>
<path d="M577.104 298.184C596.933 298.184 613.008 282.109 613.008 262.28C613.008 242.451 596.933 226.376 577.104 226.376C557.275 226.376 541.2 242.451 541.2 262.28C541.2 282.109 557.275 298.184 577.104 298.184Z" fill="white"/>
<path d="M577.104 299.416C556.512 299.416 539.968 282.872 539.968 262.28C539.968 241.688 556.512 225.144 577.104 225.144C597.696 225.144 614.24 241.688 614.24 262.28C614.24 282.696 597.696 299.24 577.104 299.416ZM577.104 227.608C557.92 227.608 542.432 243.096 542.432 262.28C542.432 281.464 557.92 296.952 577.104 296.952C596.288 296.952 611.776 281.464 611.776 262.28C611.776 243.096 596.288 227.608 577.104 227.608Z" fill="#231F20"/>
<path d="M577.104 292.2C560.56 292.2 547.184 278.824 547.184 262.28C547.184 245.736 560.56 232.36 577.104 232.36C593.648 232.36 607.024 245.736 607.024 262.28C607.024 278.824 593.648 292.2 577.104 292.2ZM577.104 234.824C561.968 234.824 549.648 247.144 549.648 262.28C549.648 277.416 561.968 289.736 577.104 289.736C592.24 289.736 604.56 277.416 604.56 262.28C604.56 246.968 592.24 234.824 577.104 234.824Z" fill="#D1D3D4"/>
<path d="M578.512 276.888V280.76H575.344V276.712C569.184 276.008 564.608 272.664 563.728 266.68L570.416 265.448C570.768 268.088 572.704 270.376 575.344 270.904V264.216C570.064 262.984 564.432 261.224 564.432 255.592C564.432 250.664 568.832 247.32 575.344 246.968V243.448H578.512V247.144C584.32 247.848 588.368 251.016 589.424 255.592L582.736 257C582.208 254.888 580.624 253.48 578.512 252.952V258.584C583.968 259.816 590.48 261.576 590.48 267.912C590.48 273.368 585.904 276.712 578.512 276.888ZM575.344 258.056V252.776C572.88 252.952 571.296 253.832 571.296 255.416C571.296 256.824 573.056 257.528 575.344 258.056ZM583.616 268.264C583.616 266.504 581.504 265.624 578.512 264.92V271.08C581.856 271.08 583.616 270.024 583.616 268.264Z" fill="#68E1FD"/>
<path d="M258.016 641.208H315.04V404.312H349.184L286.528 332.68L223.696 404.312H258.016V641.208Z" fill="#68E1FD"/>
<path d="M160.16 641.208H203.456V545.464H229.328L181.808 491.256L134.288 545.464H160.16V641.208Z" fill="#68E1FD"/>
<path d="M654.544 641.208H711.568V308.744H745.712L683.056 237.112L620.4 308.744H654.544V641.208Z" fill="#68E1FD"/>
<path d="M432.784 444.264C432.784 444.264 397.76 422.264 381.568 412.408C365.376 402.552 379.984 396.744 390.896 398.328C390.896 398.328 404.8 383.368 416.592 393.224C416.592 393.224 424.336 381.432 442.288 377.384C460.24 373.336 495.968 382.488 495.968 382.488C495.968 382.488 511.456 368.408 522.72 372.808C533.984 377.208 526.768 387.24 526.768 387.24C526.768 387.24 558.8 391.992 554.752 400.088C550.704 408.184 512.688 422.968 504.944 431.944C497.2 440.92 493.504 445.496 493.504 445.496L432.784 444.264Z" fill="white"/>
<path d="M493.504 446.728L432.96 445.496C432.784 445.496 432.432 445.496 432.256 445.32C431.904 445.144 397.056 423.32 381.04 413.464C374.88 409.768 372.24 406.072 373.472 402.728C375.056 398.152 383.504 396.216 390.544 397.096C393.008 394.632 405.328 383.544 416.416 391.64C422.928 383.896 431.904 378.44 441.936 376.328C458.832 372.28 490.512 380.024 495.616 381.256C498.432 378.792 512.336 367.528 523.248 371.928C526.944 373.336 529.232 375.624 530.112 378.44C530.816 381.256 530.288 384.072 528.88 386.536C535.04 387.592 552.992 391.112 555.984 396.92C556.688 398.152 556.688 399.56 555.984 400.792C553.696 405.368 542.256 411.352 530.288 417.864C520.08 423.32 509.52 428.776 506 433C498.256 441.8 494.56 446.376 494.56 446.552C494.208 446.552 493.856 446.728 493.504 446.728ZM433.136 443.032L492.8 444.264C493.856 442.856 497.552 438.456 504.064 431.064C507.936 426.664 518.144 421.208 529.056 415.4C539.968 409.592 551.76 403.432 553.696 399.384C554.048 398.856 554.048 398.152 553.696 397.624C551.232 392.872 533.28 389.176 526.592 388.12C526.24 388.12 525.712 387.768 525.712 387.416C525.536 387.064 525.536 386.536 525.888 386.184C525.888 386.184 528.704 382.136 527.648 378.616C526.768 376.328 524.832 374.392 522.368 373.688C511.808 369.464 497.024 382.84 496.848 383.016C496.496 383.368 496.144 383.368 495.792 383.368C495.44 383.192 460.064 374.216 442.64 378.264C425.216 382.312 417.824 393.576 417.824 393.752C417.648 394.104 417.296 394.28 416.944 394.28C416.592 394.28 416.24 394.28 415.888 394.104C405.152 385.128 392.128 399.032 391.952 399.032C391.6 399.384 391.248 399.384 390.896 399.384C384.208 398.504 376.816 400.44 375.76 403.432C375.056 405.368 377.344 408.36 382.272 411.352C397.584 420.68 429.792 440.92 433.136 443.032Z" fill="#231F20"/>
<path d="M439.296 447.256C439.296 447.256 384.736 485.8 357.104 518.712C337.04 542.648 337.92 598.44 340.032 627.128C340.736 636.984 351.824 644.904 365.376 644.904H566.192C579.04 644.904 589.952 637.688 591.36 628.184C594.528 607.064 598.4 570.104 591.36 545.992C580.8 510.264 501.952 455 498.608 447.08H439.296V447.256Z" fill="white"/>
<path d="M566.368 646.312H365.376C351.296 646.312 339.504 638.04 338.8 627.48C336.688 597.032 335.984 542.296 356.224 518.184C383.68 485.448 438.064 446.904 438.592 446.376C438.768 446.2 439.12 446.2 439.296 446.2H498.608C499.136 446.2 499.488 446.552 499.664 446.904C500.544 449.016 509.168 456.232 519.024 464.68C543.664 485.624 584.848 520.472 592.416 545.816C599.632 570.456 595.584 608.296 592.592 628.536C591.184 638.744 579.744 646.312 566.368 646.312ZM439.824 448.488C435.248 451.656 384.384 488.264 358.16 519.592C338.624 543 339.152 597.032 341.264 627.128C341.968 636.456 352.528 643.672 365.376 643.672H566.192C578.512 643.672 588.896 636.984 590.128 628.008C593.12 607.944 597.168 570.632 590.128 546.344C582.912 521.704 542.08 487.032 517.616 466.44C506.176 456.76 499.84 451.304 497.904 448.488H439.824Z" fill="#231F20"/>
<path d="M485.056 444.968C484.88 444.968 484.704 444.968 484.528 444.792C484 444.44 483.648 443.736 483.824 443.208C489.28 431.592 496.144 420.504 503.888 410.296C504.24 409.768 505.12 409.592 505.648 409.944C506.176 410.296 506.352 411 506 411.704C498.256 421.736 491.744 432.648 486.288 444.088C485.936 444.792 485.584 444.968 485.056 444.968Z" fill="#D1D3D4"/>
<path d="M460.416 446.376C459.888 446.376 459.36 446.024 459.184 445.496C452.848 426.664 429.616 401.672 429.264 401.32C428.736 400.792 428.736 400.088 429.264 399.56C429.792 399.032 430.496 399.032 431.024 399.56C431.904 400.44 449.152 419.096 457.952 436.52C456.368 425.608 453.728 414.872 450.032 404.488C449.856 403.784 450.208 403.08 450.736 402.904C451.44 402.728 452.144 403.08 452.32 403.608C457.072 416.984 460.064 430.888 461.472 444.968C461.648 445.496 461.12 446.024 460.416 446.376Z" fill="#D1D3D4"/>
<path d="M443.168 445.848C442.64 445.848 442.288 445.496 442.112 445.144C437.536 434.408 420.64 423.848 420.464 423.848C419.936 423.496 419.76 422.792 420.112 422.088C420.464 421.56 421.168 421.384 421.872 421.736C422.576 422.088 439.472 432.648 444.4 444.264C444.752 444.968 444.4 445.672 443.696 445.848C443.344 445.848 443.168 445.848 443.168 445.848Z" fill="#D1D3D4"/>
<path d="M400.928 518.36C400.752 518.36 400.576 518.36 400.224 518.184C399.696 517.832 399.344 517.128 399.696 516.6C419.408 482.456 450.032 453.416 450.384 453.064C450.912 452.536 451.616 452.712 452.144 453.064C452.496 453.416 452.496 453.944 452.32 454.472C452.144 454.824 434.896 487.208 431.376 503.4C431.2 504.104 430.496 504.456 429.968 504.28C429.44 504.104 428.912 503.4 429.088 502.872C431.728 490.904 441.232 470.84 446.688 460.28C437.008 470.312 416.592 492.664 402.16 517.656C401.808 518.184 401.28 518.36 400.928 518.36Z" fill="#D1D3D4"/>
<path d="M537.504 515.192C536.976 515.192 536.624 514.84 536.448 514.488C523.248 485.096 475.2 450.424 474.672 450.072C474.144 449.72 473.968 448.84 474.496 448.312C474.848 447.784 475.552 447.608 476.08 447.96C478.016 449.368 525.36 483.336 538.736 513.256C539.088 513.784 538.736 514.664 538.208 514.84C538.032 515.192 537.68 515.192 537.504 515.192Z" fill="#D1D3D4"/>
<path d="M488.224 498.12C487.696 498.12 487.168 497.768 486.992 497.24C484.528 488.968 480.304 481.224 474.496 474.712C473.968 474.184 473.968 473.48 474.496 472.952C475.024 472.424 475.728 472.424 476.256 472.952C482.416 479.64 486.816 487.736 489.456 496.536C489.632 497.24 489.28 497.944 488.576 498.12C488.576 498.12 488.4 498.12 488.224 498.12Z" fill="#D1D3D4"/>
<path d="M431.024 439.16H498.608C502.128 439.16 504.944 441.976 504.944 445.496C504.944 449.016 502.128 451.832 498.608 451.832H431.024C427.504 451.832 424.688 449.016 424.688 445.496C424.688 441.976 427.504 439.16 431.024 439.16Z" fill="#231F20"/>
<path d="M498.608 453.064H431.024C426.8 452.888 423.632 449.368 423.808 445.144C423.984 441.272 427.152 438.104 431.024 437.928H498.608C502.832 438.104 506 441.624 505.824 445.848C505.648 449.896 502.48 452.888 498.608 453.064ZM431.024 440.392C428.208 440.568 426.096 443.032 426.272 445.848C426.448 448.488 428.56 450.6 431.024 450.6H498.608C501.424 450.424 503.536 447.96 503.36 445.144C503.184 442.504 501.072 440.392 498.608 440.392H431.024Z" fill="#231F20"/>
<path d="M260.304 663.56L224.4 643.32L225.456 594.568C225.456 594.568 369.952 594.04 371.36 594.568C382.976 598.968 394.064 604.952 404.272 612.168L260.304 663.56Z" fill="white"/>
<path d="M260.304 664.792C260.128 664.792 259.952 664.792 259.776 664.616L223.872 644.552C223.52 644.376 223.168 643.848 223.168 643.496L224.224 594.744C224.224 594.04 224.752 593.512 225.456 593.512C279.488 593.336 370.304 593.16 371.712 593.512C383.504 598.088 394.592 604.072 404.976 611.288C405.328 611.64 405.504 611.992 405.504 612.52C405.504 613.048 405.152 613.4 404.624 613.576L260.656 664.968C260.656 664.792 260.48 664.792 260.304 664.792ZM225.632 642.616L260.48 662.152L401.632 611.816C392.128 605.304 381.744 599.848 371.008 595.8C368.192 595.448 276.144 595.624 226.688 595.8L225.632 642.616Z" fill="#231F20"/>
<path d="M404.272 612.168C402.16 610.76 260.304 612.168 260.304 612.168V663.56H404.272V612.168Z" fill="white"/>
<path d="M260.304 664.792C259.6 664.792 259.072 664.264 259.072 663.56V612.168C259.072 611.464 259.6 610.936 260.304 610.936C313.28 610.408 402.688 609.704 404.976 611.112C405.328 611.288 405.504 611.816 405.504 612.168V663.56C405.504 664.264 404.976 664.792 404.272 664.792H260.304ZM261.536 613.4V662.328H403.04V613.224C393.712 612.344 315.04 612.696 261.536 613.4Z" fill="#231F20"/>
<path d="M395.296 641.208H377.872C377.168 641.208 376.64 640.68 376.64 639.976C376.64 639.272 377.168 638.744 377.872 638.744H395.296C396 638.744 396.528 639.272 396.528 639.976C396.528 640.68 396 641.208 395.296 641.208Z" fill="#D1D3D4"/>
<path d="M299.904 662.152V611.816L271.392 594.392H343.552L375.76 611.464L377.696 661.624" fill="#231F20"/>
<path d="M299.904 663.384C299.2 663.384 298.672 662.856 298.672 662.152V612.344L270.688 595.272C270.16 594.92 269.984 594.216 270.336 593.512C270.512 593.16 271.04 592.984 271.392 592.984H343.728C343.904 592.984 344.08 592.984 344.256 593.16L376.464 610.232C376.816 610.408 377.168 610.76 377.168 611.288L379.104 661.448C379.104 662.152 378.576 662.68 377.872 662.68C377.168 662.68 376.64 662.152 376.64 661.448L374.704 611.992L343.376 595.272H275.792L300.608 610.408C300.96 610.584 301.136 611.112 301.136 611.464V661.976C301.136 662.856 300.608 663.384 299.904 663.384Z" fill="#231F20"/>
<path d="M260.304 613.4C260.128 613.4 259.952 613.4 259.776 613.224L224.928 595.624C224.4 595.272 224.048 594.568 224.4 594.04C224.752 593.512 225.456 593.16 225.984 593.512L260.832 611.112C261.36 611.464 261.712 612.168 261.36 612.696C261.184 613.224 260.832 613.4 260.304 613.4Z" fill="#231F20"/>
<path d="M295.504 626.952H269.28C268.576 626.952 268.048 626.424 268.048 625.72C268.048 625.016 268.576 624.488 269.28 624.488H295.504C296.208 624.488 296.736 625.016 296.736 625.72C296.736 626.424 296.208 626.952 295.504 626.952Z" fill="#D1D3D4"/>
<path d="M400.048 623.784H381.92C381.216 623.784 380.688 623.256 380.688 622.552C380.688 621.848 381.216 621.32 381.92 621.32H400.048C400.752 621.32 401.28 621.848 401.28 622.552C401.28 623.256 400.752 623.784 400.048 623.784Z" fill="#D1D3D4"/>
<path d="M291.632 645.432H263.296C262.592 645.432 262.064 644.904 262.064 644.2C262.064 643.496 262.592 642.968 263.296 642.968H291.632C292.336 642.968 292.864 643.496 292.864 644.2C292.864 644.904 292.336 645.432 291.632 645.432Z" fill="#D1D3D4"/>
<path d="M251.328 622.024C251.152 622.024 250.976 622.024 250.8 621.848L231.792 611.464C231.264 611.112 230.912 610.408 231.264 609.704C231.616 609.176 232.32 608.824 232.848 609.176L251.856 619.56C252.56 619.912 252.736 620.616 252.384 621.32C252.208 621.848 251.68 622.024 251.328 622.024Z" fill="#D1D3D4"/>
<path d="M255.904 650.888C255.728 650.888 255.552 650.888 255.376 650.712L235.488 640.152C234.96 639.8 234.608 639.096 234.96 638.568C235.312 638.04 236.016 637.688 236.544 638.04L256.432 648.6C256.96 648.952 257.312 649.656 256.96 650.36C256.784 650.712 256.256 650.888 255.904 650.888Z" fill="#D1D3D4"/>
<path d="M248.864 634.696C248.688 634.696 248.512 634.696 248.336 634.52L227.392 623.432C226.864 623.08 226.512 622.376 226.864 621.848C227.216 621.32 227.92 620.968 228.448 621.32L249.392 632.408C249.92 632.76 250.272 633.464 249.92 633.992C249.744 634.52 249.216 634.696 248.864 634.696Z" fill="#D1D3D4"/>
<path d="M297.44 655.464H280.72C280.016 655.464 279.488 654.936 279.488 654.232C279.488 653.528 280.016 653 280.72 653H297.44C298.144 653 298.672 653.528 298.672 654.232C298.672 654.936 298.144 655.464 297.44 655.464Z" fill="#D1D3D4"/>
<path d="M371.536 576.264V592.104C371.536 598.088 354.464 603.016 333.168 603.016C311.872 603.016 294.8 598.088 294.8 592.104V576.264H371.536Z" fill="white"/>
<path d="M333.168 604.248C313.984 604.248 293.568 600.024 293.568 592.104V576.264C293.568 575.56 294.096 575.032 294.8 575.032H371.36C372.064 575.032 372.592 575.56 372.592 576.264V592.104C372.768 600.024 352.352 604.248 333.168 604.248ZM296.032 577.496V592.104C296.032 596.68 311.168 601.784 333.168 601.784C355.168 601.784 370.304 596.68 370.304 592.104V577.496H296.032Z" fill="#231F20"/>
<path d="M333.168 587.176C354.358 587.176 371.536 582.291 371.536 576.264C371.536 570.237 354.358 565.352 333.168 565.352C311.978 565.352 294.8 570.237 294.8 576.264C294.8 582.291 311.978 587.176 333.168 587.176Z" fill="#231F20"/>
<path d="M333.168 588.408C313.984 588.408 293.568 584.184 293.568 576.264C293.568 568.344 313.984 564.12 333.168 564.12C352.352 564.12 372.768 568.344 372.768 576.264C372.768 584.184 352.352 588.408 333.168 588.408ZM333.168 566.584C311.344 566.584 296.032 571.688 296.032 576.264C296.032 580.84 311.168 585.944 333.168 585.944C355.168 585.944 370.304 580.84 370.304 576.264C370.304 571.688 354.992 566.584 333.168 566.584Z" fill="#231F20"/>
<path d="M362.384 554.616V570.456C362.384 576.44 345.136 581.368 324.016 581.368C302.896 581.368 285.648 576.44 285.648 570.456V554.616H362.384Z" fill="white"/>
<path d="M324.192 582.424C305.008 582.424 284.592 578.2 284.592 570.28V554.44C284.592 553.736 285.12 553.208 285.824 553.208H362.384C363.088 553.208 363.616 553.736 363.616 554.44V570.28C363.616 578.2 343.376 582.424 324.192 582.424ZM287.056 555.848V570.456C287.056 575.032 302.192 580.136 324.192 580.136C346.192 580.136 361.328 575.032 361.328 570.456V555.848H287.056Z" fill="#231F20"/>
<path d="M324.192 565.528C345.382 565.528 362.56 560.643 362.56 554.616C362.56 548.589 345.382 543.704 324.192 543.704C303.002 543.704 285.824 548.589 285.824 554.616C285.824 560.643 303.002 565.528 324.192 565.528Z" fill="white"/>
<path d="M324.192 566.584C305.008 566.584 284.592 562.36 284.592 554.44C284.592 546.52 305.008 542.296 324.192 542.296C343.376 542.296 363.792 546.52 363.792 554.44C363.792 562.36 343.376 566.584 324.192 566.584ZM324.192 544.936C302.368 544.936 287.056 550.04 287.056 554.616C287.056 559.192 302.192 564.296 324.192 564.296C346.192 564.296 361.328 559.192 361.328 554.616C361.328 550.04 346.016 544.936 324.192 544.936Z" fill="#231F20"/>
<path d="M324.192 562.36C312.576 562.36 290.752 560.776 290.752 554.44C290.752 548.104 312.576 546.696 324.192 546.696C335.808 546.696 357.456 548.28 357.456 554.44C357.456 560.6 335.632 562.36 324.192 562.36ZM324.192 549.16C304.128 549.16 293.216 552.68 293.216 554.44C293.216 556.2 304.128 559.72 324.192 559.72C344.256 559.72 355.168 556.2 355.168 554.44C355.168 552.68 344.08 549.16 324.192 549.16Z" fill="#D1D3D4"/>
<path d="M696.784 630.296L542.784 628.888L500.368 668.136H678.48L696.784 630.296Z" fill="white"/>
<path d="M678.48 669.368H500.368C499.664 669.368 499.136 668.84 499.136 668.136C499.136 667.784 499.312 667.432 499.488 667.256L541.904 628.008C542.08 627.832 542.432 627.656 542.784 627.656L696.784 629.064C697.136 629.064 697.664 629.24 697.84 629.592C698.016 629.944 698.016 630.472 697.84 630.824L679.536 668.664C679.36 669.016 678.832 669.368 678.48 669.368ZM503.536 666.904H677.776L695.024 631.528L543.488 630.12L503.536 666.904Z" fill="#231F20"/>
<path d="M496.848 636.984V652.824C496.848 658.808 513.92 663.736 535.216 663.736C556.512 663.736 573.584 658.808 573.584 652.824V636.984H496.848Z" fill="white"/>
<path d="M535.216 664.792C516.032 664.792 495.616 660.568 495.616 652.648V636.808C495.616 636.104 496.144 635.576 496.848 635.576H573.408C574.112 635.576 574.64 636.104 574.64 636.808V652.648C574.64 660.568 554.4 664.792 535.216 664.792ZM498.08 638.216V652.824C498.08 657.4 513.216 662.504 535.216 662.504C557.216 662.504 572.352 657.4 572.352 652.824V638.216H498.08Z" fill="#231F20"/>
<path d="M535.216 647.896C556.406 647.896 573.584 643.011 573.584 636.984C573.584 630.957 556.406 626.072 535.216 626.072C514.026 626.072 496.848 630.957 496.848 636.984C496.848 643.011 514.026 647.896 535.216 647.896Z" fill="#231F20"/>
<path d="M535.216 648.952C516.032 648.952 495.616 644.728 495.616 636.808C495.616 628.888 516.032 624.664 535.216 624.664C554.4 624.664 574.816 628.888 574.816 636.808C574.816 644.728 554.4 648.952 535.216 648.952ZM535.216 627.304C513.392 627.304 498.08 632.408 498.08 636.984C498.08 641.56 513.216 646.664 535.216 646.664C557.216 646.664 572.352 641.56 572.352 636.984C572.352 632.408 557.04 627.304 535.216 627.304Z" fill="#231F20"/>
<path d="M505.824 615.16V631C505.824 636.984 523.072 641.912 544.192 641.912C565.312 641.912 582.56 637.16 582.56 631V615.16H505.824Z" fill="white"/>
<path d="M544.192 643.144C525.008 643.144 504.592 638.92 504.592 631V615.16C504.592 614.456 505.12 613.928 505.824 613.928H582.56C583.264 613.928 583.792 614.456 583.792 615.16V631C583.792 638.92 563.376 643.144 544.192 643.144ZM507.056 616.392V631C507.056 635.576 522.192 640.68 544.192 640.68C566.192 640.68 581.328 635.576 581.328 631V616.392H507.056Z" fill="#231F20"/>
<path d="M544.192 626.072C565.382 626.072 582.56 621.187 582.56 615.16C582.56 609.133 565.382 604.248 544.192 604.248C523.002 604.248 505.824 609.133 505.824 615.16C505.824 621.187 523.002 626.072 544.192 626.072Z" fill="#231F20"/>
<path d="M544.192 627.304C525.008 627.304 504.592 623.08 504.592 615.16C504.592 607.24 525.008 603.016 544.192 603.016C563.376 603.016 583.792 607.24 583.792 615.16C583.792 623.08 563.376 627.304 544.192 627.304ZM544.192 605.48C522.368 605.48 507.056 610.584 507.056 615.16C507.056 619.736 522.192 624.84 544.192 624.84C566.192 624.84 581.328 619.736 581.328 615.16C581.328 610.584 566.016 605.48 544.192 605.48Z" fill="#231F20"/>
<path d="M498.08 591.048V606.888C498.08 612.872 515.328 617.8 536.448 617.8C557.568 617.8 574.816 612.872 574.816 606.888V591.048H498.08Z" fill="white"/>
<path d="M536.272 618.856C517.088 618.856 496.672 614.632 496.672 606.712V590.872C496.672 590.168 497.2 589.64 497.904 589.64H574.464C575.168 589.64 575.696 590.168 575.696 590.872V606.712C575.872 614.632 555.456 618.856 536.272 618.856ZM499.312 592.28V606.888C499.312 611.464 514.448 616.568 536.448 616.568C558.448 616.568 573.584 611.464 573.584 606.888V592.28H499.312Z" fill="#231F20"/>
<path d="M536.272 601.96C557.462 601.96 574.64 597.074 574.64 591.048C574.64 585.021 557.462 580.136 536.272 580.136C515.082 580.136 497.904 585.021 497.904 591.048C497.904 597.074 515.082 601.96 536.272 601.96Z" fill="white"/>
<path d="M536.272 603.016C517.088 603.016 496.672 598.792 496.672 590.872C496.672 582.952 517.088 578.728 536.272 578.728C555.456 578.728 575.872 582.952 575.872 590.872C575.872 598.792 555.456 603.016 536.272 603.016ZM536.272 581.368C514.448 581.368 499.136 586.472 499.136 591.048C499.136 595.624 514.272 600.728 536.272 600.728C558.272 600.728 573.408 595.624 573.408 591.048C573.408 586.472 558.272 581.368 536.272 581.368Z" fill="#231F20"/>
<path d="M536.272 598.792C524.832 598.792 502.832 597.208 502.832 591.048C502.832 584.888 524.656 583.128 536.272 583.128C547.888 583.128 569.712 584.712 569.712 591.048C569.712 597.384 547.888 598.792 536.272 598.792ZM536.272 585.592C516.208 585.592 505.472 589.112 505.472 590.872C505.472 592.632 516.384 596.152 536.272 596.152C556.16 596.152 567.248 592.632 567.248 590.872C567.248 589.112 556.336 585.592 536.272 585.592Z" fill="#D1D3D4"/>
<path d="M597.344 628.36V644.2C597.344 650.184 614.416 655.112 635.712 655.112C657.008 655.112 674.08 650.184 674.08 644.2V628.36H597.344Z" fill="white"/>
<path d="M635.536 656.344C616.352 656.344 595.936 652.12 595.936 644.2V628.36C595.936 627.656 596.464 627.128 597.168 627.128H673.728C674.432 627.128 674.96 627.656 674.96 628.36V644.2C675.136 652.12 654.72 656.344 635.536 656.344ZM598.4 629.592V644.2C598.4 648.776 613.536 653.88 635.536 653.88C657.536 653.88 672.672 648.776 672.672 644.2V629.592H598.4Z" fill="#231F20"/>
<path d="M635.536 639.272C656.726 639.272 673.904 634.387 673.904 628.36C673.904 622.333 656.726 617.448 635.536 617.448C614.346 617.448 597.168 622.333 597.168 628.36C597.168 634.387 614.346 639.272 635.536 639.272Z" fill="#231F20"/>
<path d="M635.536 640.504C616.352 640.504 595.936 636.28 595.936 628.36C595.936 620.44 616.352 616.216 635.536 616.216C654.72 616.216 675.136 620.44 675.136 628.36C675.136 636.28 654.72 640.504 635.536 640.504ZM635.536 618.856C613.712 618.856 598.4 623.96 598.4 628.536C598.4 633.112 613.712 638.216 635.536 638.216C657.36 638.216 672.672 633.112 672.672 628.536C672.672 623.96 657.36 618.856 635.536 618.856Z" fill="#231F20"/>
<path d="M592.24 609.704V625.544C592.24 631.528 609.312 636.456 630.608 636.456C651.904 636.456 668.8 631.528 668.8 625.544V609.704H592.24Z" fill="white"/>
<path d="M630.608 637.688C611.424 637.688 591.008 633.464 591.008 625.544V609.704C591.008 609 591.536 608.472 592.24 608.472H668.8C669.504 608.472 670.032 609 670.032 609.704V625.544C670.032 633.464 649.792 637.688 630.608 637.688ZM593.472 610.936V625.544C593.472 630.12 608.608 635.224 630.608 635.224C652.608 635.224 667.744 630.12 667.744 625.544V610.936H593.472Z" fill="#231F20"/>
<path d="M630.608 620.616C651.798 620.616 668.976 615.73 668.976 609.704C668.976 603.677 651.798 598.792 630.608 598.792C609.418 598.792 592.24 603.677 592.24 609.704C592.24 615.73 609.418 620.616 630.608 620.616Z" fill="#231F20"/>
<path d="M630.608 621.848C611.424 621.848 591.008 617.624 591.008 609.704C591.008 601.784 611.424 597.56 630.608 597.56C649.792 597.56 670.208 601.784 670.208 609.704C670.208 617.624 649.792 621.848 630.608 621.848ZM630.608 600.024C608.784 600.024 593.472 605.128 593.472 609.704C593.472 614.28 608.608 619.384 630.608 619.384C652.608 619.384 667.744 614.28 667.744 609.704C667.744 605.128 652.432 600.024 630.608 600.024Z" fill="#231F20"/>
<path d="M598.4 586.824V602.664C598.4 608.648 615.472 613.576 636.768 613.576C658.064 613.576 675.136 608.648 675.136 602.664V586.824H598.4Z" fill="white"/>
<path d="M636.768 614.808C617.584 614.808 597.168 610.584 597.168 602.664V586.824C597.168 586.12 597.696 585.592 598.4 585.592H674.96C675.664 585.592 676.192 586.12 676.192 586.824V602.664C676.192 610.584 655.952 614.808 636.768 614.808ZM599.632 588.056V602.664C599.632 607.24 614.768 612.344 636.768 612.344C658.768 612.344 673.904 607.24 673.904 602.664V588.056H599.632Z" fill="#231F20"/>
<path d="M636.768 597.736C657.958 597.736 675.136 592.851 675.136 586.824C675.136 580.797 657.958 575.912 636.768 575.912C615.578 575.912 598.4 580.797 598.4 586.824C598.4 592.851 615.578 597.736 636.768 597.736Z" fill="#231F20"/>
<path d="M636.768 598.968C617.584 598.968 597.168 594.744 597.168 586.824C597.168 578.904 617.584 574.68 636.768 574.68C655.952 574.68 676.368 578.904 676.368 586.824C676.368 594.744 655.952 598.968 636.768 598.968ZM636.768 577.144C614.944 577.144 599.632 582.248 599.632 586.824C599.632 591.4 614.768 596.504 636.768 596.504C658.768 596.504 673.904 591.4 673.904 586.824C673.904 582.248 658.592 577.144 636.768 577.144Z" fill="#231F20"/>
<path d="M592.24 563.768V579.608C592.24 585.592 609.312 590.52 630.608 590.52C651.904 590.52 668.8 585.592 668.8 579.608V563.768H592.24Z" fill="white"/>
<path d="M630.608 591.752C611.424 591.752 591.008 587.528 591.008 579.608V563.768C591.008 563.064 591.536 562.536 592.24 562.536H668.8C669.504 562.536 670.032 563.064 670.032 563.768V579.608C670.032 587.528 649.792 591.752 630.608 591.752ZM593.472 565V579.608C593.472 584.184 608.608 589.288 630.608 589.288C652.608 589.288 667.744 584.184 667.744 579.608V565H593.472Z" fill="#231F20"/>
<path d="M630.608 574.68C651.798 574.68 668.976 569.795 668.976 563.768C668.976 557.741 651.798 552.856 630.608 552.856C609.418 552.856 592.24 557.741 592.24 563.768C592.24 569.795 609.418 574.68 630.608 574.68Z" fill="#231F20"/>
<path d="M630.608 575.912C611.424 575.912 591.008 571.688 591.008 563.768C591.008 555.848 611.424 551.8 630.608 551.8C649.792 551.8 670.208 556.024 670.208 563.944C670.208 571.864 649.792 575.912 630.608 575.912ZM630.608 554.264C608.784 554.264 593.472 559.368 593.472 563.944C593.472 568.52 608.608 573.624 630.608 573.624C652.608 573.624 667.744 568.52 667.744 563.944C667.744 559.368 652.432 554.264 630.608 554.264Z" fill="#231F20"/>
<path d="M604.56 544.936V560.776C604.56 566.76 621.808 571.688 642.928 571.688C664.048 571.688 681.296 566.76 681.296 560.776V544.936H604.56Z" fill="white"/>
<path d="M642.928 572.92C623.744 572.92 603.328 568.696 603.328 560.776V544.936C603.328 544.232 603.856 543.704 604.56 543.704H681.12C681.824 543.704 682.352 544.232 682.352 544.936V560.776C682.528 568.696 662.112 572.92 642.928 572.92ZM605.792 546.168V560.776C605.792 565.352 620.928 570.456 642.928 570.456C664.928 570.456 680.064 565.352 680.064 560.776V546.168H605.792Z" fill="#231F20"/>
<path d="M642.928 555.848C664.118 555.848 681.296 550.963 681.296 544.936C681.296 538.909 664.118 534.024 642.928 534.024C621.738 534.024 604.56 538.909 604.56 544.936C604.56 550.963 621.738 555.848 642.928 555.848Z" fill="#231F20"/>
<path d="M642.928 557.08C623.744 557.08 603.328 552.856 603.328 544.936C603.328 537.016 623.744 532.792 642.928 532.792C662.112 532.792 682.528 537.016 682.528 544.936C682.528 552.856 662.112 557.08 642.928 557.08ZM642.928 535.432C621.104 535.432 605.792 540.536 605.792 545.112C605.792 549.688 620.928 554.792 642.928 554.792C664.928 554.792 680.064 549.688 680.064 545.112C680.064 540.536 664.752 535.432 642.928 535.432Z" fill="#231F20"/>
<path d="M596.288 526.28V542.12C596.288 548.104 613.36 553.032 634.656 553.032C655.952 553.032 673.024 548.104 673.024 542.12V526.28H596.288Z" fill="white"/>
<path d="M634.48 554.264C615.296 554.264 594.88 550.04 594.88 542.12V526.28C594.88 525.576 595.408 525.048 596.112 525.048H672.672C673.376 525.048 673.904 525.576 673.904 526.28V542.12C674.08 549.864 653.664 554.264 634.48 554.264ZM597.52 527.512V542.12C597.52 546.696 612.656 551.8 634.656 551.8C656.656 551.8 671.792 546.696 671.792 542.12V527.512H597.52Z" fill="#231F20"/>
<path d="M634.48 537.192C655.67 537.192 672.848 532.307 672.848 526.28C672.848 520.253 655.67 515.368 634.48 515.368C613.29 515.368 596.112 520.253 596.112 526.28C596.112 532.307 613.29 537.192 634.48 537.192Z" fill="white"/>
<path d="M634.48 538.424C615.296 538.424 594.88 534.2 594.88 526.28C594.88 518.36 615.296 514.136 634.48 514.136C653.664 514.136 674.08 518.36 674.08 526.28C674.08 534.2 653.664 538.424 634.48 538.424ZM634.48 516.6C612.656 516.6 597.344 521.704 597.344 526.28C597.344 530.856 612.48 535.96 634.48 535.96C656.48 535.96 671.616 530.856 671.616 526.28C671.616 521.704 656.304 516.6 634.48 516.6Z" fill="#231F20"/>
<path d="M634.48 534.024C622.864 534.024 601.04 532.44 601.04 526.28C601.04 520.12 622.864 518.36 634.48 518.36C646.096 518.36 667.92 519.944 667.92 526.28C667.92 532.616 646.096 534.024 634.48 534.024ZM634.48 520.824C614.416 520.824 603.68 524.344 603.68 526.104C603.68 527.864 614.592 531.384 634.48 531.384C654.368 531.384 665.28 527.864 665.28 526.104C665.28 524.344 654.544 520.824 634.48 520.824Z" fill="#D1D3D4"/>
<path d="M350.24 681.688C368.514 681.688 383.328 666.874 383.328 648.6C383.328 630.326 368.514 615.512 350.24 615.512C331.966 615.512 317.152 630.326 317.152 648.6C317.152 666.874 331.966 681.688 350.24 681.688Z" fill="white"/>
<path d="M350.24 682.744C331.232 682.744 315.92 667.432 315.92 648.424C315.92 629.416 331.232 614.104 350.24 614.104C369.248 614.104 384.56 629.416 384.56 648.424C384.56 653.176 383.504 657.752 381.744 661.976C376.288 674.648 363.968 682.744 350.24 682.744ZM350.416 616.744C332.816 616.744 318.56 631 318.56 648.6C318.56 666.2 332.816 680.456 350.416 680.456C368.016 680.456 382.272 666.2 382.272 648.6C382.272 635.928 374.704 624.488 363.088 619.384C358.864 617.624 354.64 616.744 350.416 616.744Z" fill="#231F20"/>
<path d="M350.24 676.232C334.928 676.232 322.608 663.912 322.608 648.6C322.608 633.288 334.928 620.968 350.24 620.968C354.112 620.968 357.808 621.672 361.328 623.256C375.408 629.416 381.744 645.608 375.584 659.512C372.768 666.2 367.136 671.48 360.448 674.296C357.104 675.528 353.76 676.232 350.24 676.232ZM350.24 623.432C336.336 623.432 325.072 634.696 325.072 648.6C325.072 662.504 336.336 673.768 350.24 673.768C360.272 673.768 369.248 667.784 373.296 658.632C378.752 645.784 372.944 631 360.096 625.544C357.104 624.136 353.584 623.432 350.24 623.432Z" fill="#D1D3D4"/>
<path d="M481.36 646.312V662.152C481.36 668.136 464.112 673.064 442.992 673.064C421.872 673.064 404.8 668.136 404.8 662.152V646.312H481.36Z" fill="white"/>
<path d="M443.168 674.296C423.984 674.296 403.568 670.072 403.568 662.152V646.312C403.568 645.608 404.096 645.08 404.8 645.08H481.36C482.064 645.08 482.592 645.608 482.592 646.312V662.152C482.592 669.896 462.176 674.296 443.168 674.296ZM406.032 647.544V662.152C406.032 666.728 421.168 671.832 443.168 671.832C465.168 671.832 480.304 666.728 480.304 662.152V647.544H406.032Z" fill="#231F20"/>
<path d="M443.168 657.224C464.358 657.224 481.536 652.339 481.536 646.312C481.536 640.286 464.358 635.4 443.168 635.4C421.978 635.4 404.8 640.286 404.8 646.312C404.8 652.339 421.978 657.224 443.168 657.224Z" fill="white"/>
<path d="M443.168 658.28C423.984 658.28 403.568 654.056 403.568 646.136C403.568 638.216 423.984 633.992 443.168 633.992C462.352 633.992 482.768 638.216 482.768 646.136C482.768 654.056 462.176 658.28 443.168 658.28ZM443.168 636.632C421.344 636.632 406.032 641.736 406.032 646.312C406.032 650.888 421.168 655.992 443.168 655.992C465.168 655.992 480.304 650.888 480.304 646.312C480.304 641.736 464.992 636.632 443.168 636.632Z" fill="#231F20"/>
<path d="M443.168 654.056C431.552 654.056 409.904 652.472 409.904 646.312C409.904 640.152 431.728 638.568 443.168 638.568C454.608 638.568 476.608 640.152 476.608 646.312C476.608 652.472 454.608 654.056 443.168 654.056ZM443.168 640.856C423.104 640.856 412.192 644.376 412.192 646.136C412.192 647.896 423.104 651.416 443.168 651.416C463.232 651.416 474.144 647.896 474.144 646.136C474.144 644.376 463.056 640.856 443.168 640.856Z" fill="#D1D3D4"/>
<path d="M368.896 613.4H304.656C303.952 613.4 303.424 612.872 303.424 612.168C303.424 611.464 303.952 610.936 304.656 610.936H368.896C369.6 610.936 370.128 611.464 370.128 612.168C370.128 612.872 369.6 613.4 368.896 613.4Z" fill="white"/>
</svg>
